<svg width="240" height="240" viewBox="-60 -60 360 360" fill="none" xmlns="http://www.w3.org/2000/svg">
	<path fill-rule="evenodd" clip-rule="evenodd"
		d="M42.5001 29.999C38.3579 29.999 35 33.3569 35 37.499V67.4991C35 71.6413 38.3579 74.9991 42.5001 74.9991C46.6422 74.9991 50.0001 71.6413 50.0001 67.4991V37.499C50.0001 33.3569 46.6422 29.999 42.5001 29.999ZM50.0001 127.499C50.0001 123.357 46.6422 119.999 42.5001 119.999C38.3579 119.999 35 123.357 35 127.499V202.499C35 206.642 38.3579 210 42.5001 210C46.6422 210 50.0001 206.642 50.0001 202.499V127.499ZM20 97.4992C20 93.3571 23.3579 89.9992 27.5 89.9992H57.5001C61.6422 89.9992 65.0001 93.3571 65.0001 97.4992C65.0001 101.641 61.6422 104.999 57.5001 104.999H27.5C23.3579 104.999 20 101.641 20 97.4992ZM150 134.999C158.285 134.999 165 128.284 165 119.999V59.9991C165 51.7148 158.285 44.9991 150 44.9991C141.716 44.9991 135 51.7148 135 59.9991V119.999C135 128.284 141.716 134.999 150 134.999ZM150 29.999C133.432 29.999 120 43.4305 120 59.9991V119.999C120 136.568 133.432 149.999 150 149.999C166.569 149.999 180 136.568 180 119.999V59.9991C180 43.4305 166.569 29.999 150 29.999ZM97.5002 112.499C101.642 112.499 105 115.857 105 119.999C105 131.934 109.741 143.38 118.18 151.819C126.62 160.258 138.066 164.999 150 164.999C161.935 164.999 173.381 160.258 181.82 151.819C190.259 143.38 195 131.934 195 119.999C195 115.857 198.358 112.499 202.5 112.499C206.643 112.499 210.001 115.857 210.001 119.999C210.001 135.912 203.679 151.174 192.427 162.426C182.954 171.899 170.639 177.877 157.486 179.531C157.495 179.686 157.5 179.842 157.5 179.999V194.999H172.5C176.643 194.999 180 198.357 180 202.499C180 206.642 176.643 210 172.5 210H127.5C123.358 210 120 206.642 120 202.499C120 198.357 123.358 194.999 127.5 194.999H142.5V179.999C142.5 179.842 142.505 179.686 142.515 179.531C129.362 177.877 117.047 171.899 107.574 162.426C96.3216 151.174 90.0002 135.912 90.0002 119.999C90.0002 115.857 93.3581 112.499 97.5002 112.499Z"
		fill="#FFFFFF" />
</svg>