<svg width="240" height="240" viewBox="20 20 200 200" fill="none" xmlns="http://www.w3.org/2000/svg">
	<path fill-rule="evenodd" clip-rule="evenodd"
		d="M35.0003 37.499C35.0003 33.3569 38.3582 29.999 42.5003 29.999C46.6425 29.999 50.0003 33.3569 50.0003 37.499V67.4991C50.0003 71.6413 46.6425 74.9991 42.5003 74.9991C38.3582 74.9991 35.0003 71.6413 35.0003 67.4991V37.499ZM42.5003 119.999C46.6425 119.999 50.0003 123.357 50.0003 127.499V202.499C50.0003 206.642 46.6425 210 42.5003 210C38.3582 210 35.0003 206.642 35.0003 202.499V127.499C35.0003 123.357 38.3582 119.999 42.5003 119.999ZM196.446 62.2786C193.548 59.3191 188.8 59.2693 185.84 62.1673C182.881 65.0653 182.831 69.8138 185.729 72.7733C198.09 85.397 205.009 102.364 205.001 120.032C204.992 137.7 198.057 154.661 185.683 167.272C182.782 170.229 182.827 174.978 185.784 177.879C188.741 180.78 193.489 180.734 196.39 177.778C211.513 162.363 219.99 141.634 220.001 120.04C220.011 98.4452 211.555 77.7076 196.446 62.2786ZM110 134.999C113.979 134.999 117.794 136.58 120.607 139.393L135.001 153.786V86.2124L120.607 100.606C117.794 103.419 113.979 104.999 110 104.999H100C97.239 104.999 95.0004 107.238 95.0004 109.999V129.999C95.0004 132.761 97.239 134.999 100 134.999H110ZM110 150L132.93 172.928C139.229 179.228 150.001 174.766 150.001 165.857V74.1413C150.001 65.2322 139.229 60.7705 132.929 67.0702L110 89.9994H100C88.9547 89.9994 80.0004 98.9537 80.0004 109.999V129.999C80.0004 141.045 88.9547 150 100 150H110ZM162.919 80.2246C165.848 77.2956 170.596 77.2956 173.525 80.2246C178.749 85.4479 182.892 91.6489 185.719 98.4734C188.546 105.298 190.001 112.613 190.001 119.999C190.001 127.386 188.546 134.701 185.719 141.525C182.892 148.35 178.749 154.551 173.525 159.774C170.596 162.703 165.848 162.703 162.919 159.774C159.99 156.845 159.99 152.097 162.919 149.168C166.749 145.337 169.788 140.79 171.861 135.785C173.934 130.78 175.001 125.416 175.001 119.999C175.001 114.582 173.934 109.218 171.861 104.214C169.788 99.209 166.749 94.6616 162.919 90.8312C159.99 87.9023 159.99 83.1535 162.919 80.2246ZM20.0002 97.4992C20.0002 93.3571 23.3581 89.9992 27.5003 89.9992H57.5003C61.6425 89.9992 65.0004 93.3571 65.0004 97.4992C65.0004 101.641 61.6425 104.999 57.5003 104.999H27.5003C23.3581 104.999 20.0002 101.641 20.0002 97.4992Z"
		fill="white" />
</svg>