<svg width="240" height="240" viewBox="20 20 200 200" fill="none" xmlns="http://www.w3.org/2000/svg">
	<path fill-rule="evenodd" clip-rule="evenodd"
		d="M155.84 22.1403C158.8 19.2423 163.548 19.2922 166.446 22.2517C181.555 37.6807 190.011 58.4183 190.001 80.0126C189.99 101.607 181.514 122.336 166.39 137.751C163.489 140.707 158.741 140.753 155.784 137.852C152.827 134.951 152.782 130.202 155.683 127.246C168.057 114.634 174.992 97.6734 175.001 80.0053C175.009 62.3372 168.09 45.3701 155.729 32.7464C152.831 29.7869 152.881 25.0384 155.84 22.1403ZM90.6072 99.3659C87.7942 96.5529 83.9789 94.9725 80.0006 94.9725H70.0006C67.2392 94.9725 65.0006 92.734 65.0006 89.9725V69.9725C65.0006 67.211 67.2392 64.9725 70.0006 64.9725H80.0006C83.9789 64.9725 87.7942 63.3921 90.6073 60.579L105.001 46.1855V113.759L90.6072 99.3659ZM102.93 132.901L80.0006 109.973H70.0006C58.9549 109.973 50.0005 101.018 50.0005 89.9725V69.9725C50.0005 58.9267 58.9549 49.9724 70.0006 49.9724H80.0006L102.93 27.0433C109.229 20.7436 120.001 25.2052 120.001 34.1143V125.83C120.001 134.739 109.229 139.201 102.93 132.901ZM143.526 40.1976C140.597 37.2687 135.848 37.2687 132.919 40.1976C129.99 43.1266 129.99 47.8753 132.919 50.8043C136.749 54.6347 139.788 59.1821 141.861 64.1868C143.934 69.1915 145.001 74.5555 145.001 79.9725C145.001 85.3895 143.934 90.7535 141.861 95.7582C139.788 100.763 136.749 105.31 132.919 109.141C129.99 112.07 129.99 116.818 132.919 119.747C135.848 122.676 140.597 122.676 143.526 119.747C148.749 114.524 152.892 108.323 155.719 101.499C158.546 94.6739 160.001 87.3594 160.001 79.9725C160.001 72.5856 158.546 65.2711 155.719 58.4465C152.892 51.6219 148.749 45.4209 143.526 40.1976ZM75.0006 149.999C75.0006 145.857 71.6427 142.499 67.5006 142.499C63.3584 142.499 60.0006 145.857 60.0006 149.999V154.999H37.5005C33.3584 154.999 30.0005 158.357 30.0005 162.499C30.0005 166.642 33.3584 169.999 37.5005 169.999H60.0006V174.999C60.0006 179.142 63.3584 182.499 67.5006 182.499C71.6427 182.499 75.0006 179.142 75.0006 174.999V169.999L202.501 169.999C206.643 169.999 210.001 166.642 210.001 162.499C210.001 158.357 206.643 154.999 202.501 154.999L75.0006 154.999V149.999ZM175.001 184.999C175.001 180.857 171.643 177.499 167.501 177.499C163.359 177.499 160.001 180.857 160.001 184.999V190L37.5005 190C33.3584 190 30.0005 193.357 30.0005 197.5C30.0005 201.642 33.3584 205 37.5005 205H160.001V210C160.001 214.142 163.359 217.5 167.501 217.5C171.643 217.5 175.001 214.142 175.001 210V205H202.501C206.643 205 210.001 201.642 210.001 197.5C210.001 193.357 206.643 190 202.501 190H175.001V184.999Z"
		fill="white" />
</svg>