<svg width="240" height="240" viewBox="20 20 200 200" fill="none" xmlns="http://www.w3.org/2000/svg">
	<path fill-rule="evenodd" clip-rule="evenodd"
		d="M35 37.499C35 33.3569 38.3579 29.999 42.5001 29.999C46.6422 29.999 50.0001 33.3569 50.0001 37.499V67.4991C50.0001 71.6413 46.6422 74.9991 42.5001 74.9991C38.3579 74.9991 35 71.6413 35 67.4991V37.499ZM42.5001 119.999C46.6422 119.999 50.0001 123.357 50.0001 127.499V202.499C50.0001 206.642 46.6422 210 42.5001 210C38.3579 210 35 206.642 35 202.499V127.499C35 123.357 38.3579 119.999 42.5001 119.999ZM110 54.9991H190C192.762 54.9991 195 57.2377 195 59.9991V179.999C195 182.761 192.762 184.999 190 184.999H110C107.239 184.999 105 182.761 105 179.999V59.9991C105 57.2377 107.239 54.9991 110 54.9991ZM90.0002 59.9991C90.0002 48.9534 98.9545 39.9991 110 39.9991H190C201.046 39.9991 210.001 48.9534 210.001 59.9991V179.999C210.001 191.045 201.046 199.999 190 199.999H110C98.9545 199.999 90.0002 191.045 90.0002 179.999V59.9991ZM150 95.9992C153.314 95.9992 156 93.3129 156 89.9992C156 86.6855 153.314 83.9992 150 83.9992C146.687 83.9992 144 86.6855 144 89.9992C144 93.3129 146.687 95.9992 150 95.9992ZM150 109.999C161.046 109.999 170 101.045 170 89.9992C170 78.9535 161.046 69.9991 150 69.9991C138.955 69.9991 130 78.9535 130 89.9992C130 101.045 138.955 109.999 150 109.999ZM161 144.999C161 151.074 156.076 155.999 150 155.999C143.925 155.999 139 151.074 139 144.999C139 138.924 143.925 133.999 150 133.999C156.076 133.999 161 138.924 161 144.999ZM175 144.999C175 158.806 163.807 169.999 150 169.999C136.193 169.999 125 158.806 125 144.999C125 131.192 136.193 119.999 150 119.999C163.807 119.999 175 131.192 175 144.999ZM20 97.4992C20 93.3571 23.3579 89.9992 27.5 89.9992H57.5001C61.6422 89.9992 65.0001 93.3571 65.0001 97.4992C65.0001 101.641 61.6422 104.999 57.5001 104.999H27.5C23.3579 104.999 20 101.641 20 97.4992Z"
		fill="#FFFFFF" />
</svg>